<svg xmlns="http://www.w3.org/2000/svg" width="72" height="72" viewBox="0 0 72 72">
  <g id="bs_kemnaker" transform="translate(709 -1721.414)">
    <path id="Path_3209" data-name="Path 3209" d="M-262.575,1721.414a8.532,8.532,0,0,1,1.844.622,6.125,6.125,0,0,1,3.2,6.044,5.982,5.982,0,0,1-4.775,5.326,5.889,5.889,0,0,1-6.84-4.813,6.048,6.048,0,0,1,4.832-7.12.8.8,0,0,0,.158-.06Z" transform="translate(-409.567 0)" fill="#284260"/>
    <path id="Path_3210" data-name="Path 3210" d="M180.778,2151.391a1.006,1.006,0,0,0-.138.462,5.919,5.919,0,0,1-5.969,4.637,5.989,5.989,0,0,1-5.616-5.826,6.056,6.056,0,0,1,4.862-6.207,5.89,5.89,0,0,1,6.807,5.035.606.606,0,0,0,.054.127Z" transform="translate(-817.777 -392.985)" fill="#284260"/>
    <path id="Path_3211" data-name="Path 3211" d="M-708.942,2223.155l-.058,0v-.78l.058,0A.5.5,0,0,1-708.942,2223.155Z" transform="translate(0 -465.453)" fill="#284260"/>
    <path id="Path_3212" data-name="Path 3212" d="M-190.048,2734.179c0-.019,0-.039,0-.058a.354.354,0,0,1,.625,0q0,.029,0,.058Z" transform="translate(-483.329 -940.765)" fill="#284260"/>
    <path id="Path_3213" data-name="Path 3213" d="M-338.99,2285.4a.487.487,0,0,1,.2-.29q3.084-3.151,6.173-6.3a5.687,5.687,0,0,1,7.856-.006c4.565,4.654,9.143,9.295,13.674,13.986a5.808,5.808,0,0,1,1.307,6.372,5.6,5.6,0,0,1-4.988,3.892,5.721,5.721,0,0,1-4.823-1.908q-6.729-6.877-13.465-13.75a6.291,6.291,0,0,0-3.15-1.957,6.348,6.348,0,0,0-2.519-.075C-338.8,2285.374-338.883,2285.382-338.99,2285.4Z" transform="translate(-344.613 -516.427)" fill="#284260"/>
    <path id="Path_3214" data-name="Path 3214" d="M-111.611,1982.517a2.264,2.264,0,0,0-.23-.351q-2.989-3.128-5.984-6.249a6.147,6.147,0,0,1,.013-8.239c4.485-4.672,8.952-9.365,13.458-14.015a5.41,5.41,0,0,1,5.943-1.465,5.714,5.714,0,0,1,4,4.931,6.109,6.109,0,0,1-1.824,5.3q-6.672,6.942-13.333,13.895a6.578,6.578,0,0,0-1.952,3.569,7.171,7.171,0,0,0,.037,2.531Z" transform="translate(-549.129 -214.115)" fill="#284260"/>
    <path id="Path_3215" data-name="Path 3215" d="M-596.535,2074.544c.16.006.214.125.29.2q3.057,3.183,6.109,6.371a6.166,6.166,0,0,1,0,8.112c-4.516,4.707-9.013,9.434-13.557,14.114a5.385,5.385,0,0,1-5.951,1.423,5.715,5.715,0,0,1-3.96-4.926,6.121,6.121,0,0,1,1.831-5.295q6.661-6.928,13.309-13.869a6.631,6.631,0,0,0,1.972-3.6A7.208,7.208,0,0,0-596.535,2074.544Z" transform="translate(-88.787 -328.104)" fill="#284260"/>
    <path id="Path_3216" data-name="Path 3216" d="M-431.731,1833.361c-.184.156-.335.263-.464.395q-3,3.06-6,6.125a5.7,5.7,0,0,1-7.856-.008q-6.732-6.876-13.467-13.748a6.393,6.393,0,0,1-1.829-3.557,6.063,6.063,0,0,1,3.661-6.551,5.7,5.7,0,0,1,6.506,1.553q6.71,6.848,13.416,13.7a6.3,6.3,0,0,0,3.143,1.969,6.344,6.344,0,0,0,2.552.079A.414.414,0,0,1-431.731,1833.361Z" transform="translate(-230.583 -87.496)" fill="#284260"/>
    <path id="Path_3217" data-name="Path 3217" d="M25.65,2261.435a5.389,5.389,0,0,1,1.494-3.8c1.46-1.531,2.957-3.025,4.432-4.542.158-.163.25-.166.408,0,2.4,2.544,4.848,5.048,7.207,7.635a5.8,5.8,0,0,1,1.232,6.019,5.627,5.627,0,0,1-4.689,4.042,5.45,5.45,0,0,1-4.936-1.632c-1.331-1.33-2.642-2.684-3.878-4.109A5.317,5.317,0,0,1,25.65,2261.435Z" transform="translate(-684.226 -493.882)" fill="#284260"/>
    <path id="Path_3218" data-name="Path 3218" d="M-598.909,1961.82a5.324,5.324,0,0,1-1.516,3.672c-1.455,1.521-2.942,3.008-4.409,4.516-.156.16-.248.173-.409,0-2.4-2.545-4.847-5.049-7.207-7.636a5.8,5.8,0,0,1-1.234-6.019,5.626,5.626,0,0,1,4.687-4.044,5.45,5.45,0,0,1,4.937,1.63c1.331,1.33,2.645,2.682,3.877,4.11A5.421,5.421,0,0,1-598.909,1961.82Z" transform="translate(-88.446 -214.458)" fill="#284260"/>
    <path id="Path_3219" data-name="Path 3219" d="M-452.374,2422.211a5.1,5.1,0,0,1,3.709,1.572c1.473,1.5,2.915,3.036,4.379,4.548.168.173.139.266-.013.42-2.432,2.449-4.838,4.926-7.295,7.348a5.453,5.453,0,0,1-5.809,1.406,5.686,5.686,0,0,1-3.988-4.543,5.823,5.823,0,0,1,1.444-5.337c1.239-1.341,2.535-2.627,3.837-3.9A5.123,5.123,0,0,1-452.374,2422.211Z" transform="translate(-230.48 -651.134)" fill="#284260"/>
    <path id="Path_3220" data-name="Path 3220" d="M-143.141,1821.429a5.823,5.823,0,0,1-1.594,4.13c-1.326,1.4-2.644,2.82-4.087,4.092a5.187,5.187,0,0,1-7.128-.27c-1.487-1.5-2.931-3.052-4.4-4.574-.16-.166-.156-.261,0-.422,2.465-2.481,4.89-5.006,7.4-7.439a5.365,5.365,0,0,1,5.831-1.27,5.774,5.774,0,0,1,3.92,4.8,2.829,2.829,0,0,1,.054.349C-143.135,1821.027-143.141,1821.228-143.141,1821.429Z" transform="translate(-510.881 -87.242)" fill="#284260"/>
    <path id="Path_3221" data-name="Path 3221" d="M-264.845,2577.681h-.625a5.987,5.987,0,0,1-5.556-6.333,5.994,5.994,0,0,1,5.868-5.786,6,6,0,0,1,5.869,5.786A5.989,5.989,0,0,1-264.845,2577.681Z" transform="translate(-407.91 -784.325)" fill="#284260"/>
    <path id="Path_3222" data-name="Path 3222" d="M-708.158,2148.853v-.786a5.959,5.959,0,0,1,6.107-5.663,6.012,6.012,0,0,1,5.637,6.063,6.017,6.017,0,0,1-5.575,6.052A5.949,5.949,0,0,1-708.158,2148.853Z" transform="translate(-0.784 -391.151)" fill="#284260"/>
  </g>
</svg>
