<svg xmlns="http://www.w3.org/2000/svg" xmlns:xlink="http://www.w3.org/1999/xlink" width="24" height="24" viewBox="0 0 24 24">
  <defs>
    <clipPath id="clip-path">
      <rect id="Rectangle_2899" data-name="Rectangle 2899" width="24" height="24" transform="translate(-9674 2957)" fill="#839bbd" stroke="#707070" stroke-width="1"/>
    </clipPath>
  </defs>
  <g id="ic_ig" transform="translate(9674 -2957)" clip-path="url(#clip-path)">
    <g id="surface1" transform="translate(-9670.25 2960.75)">
      <path id="Path_3257" data-name="Path 3257" d="M9.852,5A4.871,4.871,0,0,0,5,9.852v6.8A4.871,4.871,0,0,0,9.852,21.5h6.8A4.871,4.871,0,0,0,21.5,16.648v-6.8A4.871,4.871,0,0,0,16.648,5Zm0,1.5h6.8A3.347,3.347,0,0,1,20,9.852v6.8A3.347,3.347,0,0,1,16.648,20h-6.8A3.347,3.347,0,0,1,6.5,16.648v-6.8A3.347,3.347,0,0,1,9.852,6.5ZM17.68,8.141a.68.68,0,1,0,.68.68A.676.676,0,0,0,17.68,8.141Zm-4.43.609a4.5,4.5,0,1,0,4.5,4.5A4.512,4.512,0,0,0,13.25,8.75Zm0,1.5a3,3,0,1,1-3,3A2.987,2.987,0,0,1,13.25,10.25Z" transform="translate(-5 -5)" fill="#839bbd"/>
    </g>
  </g>
</svg>
