<svg xmlns="http://www.w3.org/2000/svg" xmlns:xlink="http://www.w3.org/1999/xlink" width="24" height="24" viewBox="0 0 24 24">
  <defs>
    <clipPath id="clip-path">
      <rect id="Rectangle_2837" data-name="Rectangle 2837" width="24" height="24" transform="translate(637 1057)" fill="#4cb050" stroke="#707070" stroke-width="1"/>
    </clipPath>
  </defs>
  <g id="ic_kepalabalai" transform="translate(-637 -1057)" clip-path="url(#clip-path)">
    <g id="surface1" transform="translate(641.5 1060.75)">
      <path id="Path_4968" data-name="Path 4968" d="M13.5,5a5.252,5.252,0,0,0-2.93,9.609A7.522,7.522,0,0,0,6,21.5H7.5a5.985,5.985,0,0,1,2.859-5.109,3.393,3.393,0,0,0,6.281,0A5.984,5.984,0,0,1,19.5,21.5H21a7.522,7.522,0,0,0-4.57-6.891A5.252,5.252,0,0,0,13.5,5Zm0,1.5a3.75,3.75,0,1,1-3.75,3.75A3.739,3.739,0,0,1,13.5,6.5Zm0,9a5.988,5.988,0,0,1,1.758.258,1.865,1.865,0,0,1-3.516,0A5.987,5.987,0,0,1,13.5,15.5Z" transform="translate(-6 -5)" fill="#4cb050"/>
    </g>
  </g>
</svg>
